<svg width="265" height="88" viewBox="0 0 265 88" fill="none" xmlns="http://www.w3.org/2000/svg">
<g clip-path="url(#clip0_3927_10198)">
<path d="M43.5 88C67.5244 88 87 68.3005 87 44C87 19.6995 67.5244 0 43.5 0C19.4756 0 0 19.6995 0 44C0 68.3005 19.4756 88 43.5 88Z" fill="#F9F6E7"/>
<path d="M22.9339 52.2088C23.5918 51.3473 24.3881 50.5698 25.219 49.8834C25.2467 49.8624 25.2744 49.8414 25.2952 49.8204C26.9294 48.5106 28.5497 47.6351 30.2462 47.1588C31.4234 46.8296 32.469 46.7876 33.4385 47.0327C35.0519 47.446 36.4922 48.3075 37.7178 49.5962C38.2787 50.1846 38.8534 50.7449 39.3451 51.2282C39.4697 51.3543 39.6013 51.4663 39.7467 51.5784C39.8852 51.6835 40.0306 51.7815 40.176 51.8726C40.3215 51.9636 40.4807 52.0407 40.6331 52.1037C40.7923 52.1738 40.9516 52.2298 41.1178 52.2788C41.284 52.3279 41.4571 52.3699 41.6302 52.3979C41.8241 52.4329 42.011 52.4469 42.2049 52.4609C42.3157 52.4679 42.4196 52.4679 42.5304 52.4679C42.6273 52.4679 42.7243 52.4749 42.8143 52.4749C42.8835 52.4749 42.9459 52.4749 43.0151 52.4749C43.0151 52.4749 43.0151 52.0267 43.0151 51.9917C43.0151 51.7745 43.0082 51.5644 42.9874 51.3473C42.9736 51.1932 42.9597 51.0321 42.9389 50.878C42.8766 50.3807 42.7797 49.8974 42.6481 49.4141C42.5027 48.8958 42.3296 48.3845 42.1288 47.8872C42.108 47.8382 42.0872 47.7892 42.0664 47.7401C41.007 45.1416 39.0196 43.2365 36.1667 42.0808C35.6959 41.8917 35.1627 41.7446 34.4841 41.6115C33.3 41.3874 32.0189 41.3454 30.6825 41.4855C30.1078 41.5415 29.5122 41.6606 28.9236 41.8287C27.4764 42.2489 26.0777 42.9073 24.6443 43.8528C24.5612 43.9089 24.485 43.9509 24.395 43.9999C24.3465 44.028 24.305 44.049 24.2565 44.077L24.1734 44.126L24.1319 44.042C23.7787 43.3345 23.571 42.7532 23.4671 42.1719C23.3563 41.5485 23.2594 40.8901 23.1763 40.2247C22.9478 38.3336 23.1486 36.3934 23.7995 34.2782C23.9103 33.921 24.0211 33.5638 24.1388 33.2066C24.4919 32.0929 24.8589 30.9512 25.0944 29.7885C25.4752 27.9044 25.5168 26.3705 25.2259 24.9487C24.9697 23.7089 24.4019 22.7564 23.4948 22.049L23.2525 21.8809C22.6085 22.5252 22.0199 23.2327 21.5767 23.786C21.4521 23.9401 21.3413 24.0942 21.3413 24.0942C21.3413 24.0942 21.4659 24.2483 21.5767 24.3953C21.916 24.8576 22.283 25.432 22.4423 26.1324C22.65 27.0989 22.6639 27.9535 22.4769 28.7449C22.103 30.3279 21.6944 31.8688 21.272 33.3186C20.7388 35.1467 20.2334 37.2549 20.2334 39.5033C20.2334 40.6239 20.3372 41.7376 20.5934 42.9003C20.8358 43.9859 21.1266 44.9735 21.5629 46.0521C21.5975 46.1362 21.639 46.2132 21.6736 46.2903C21.5282 46.4444 21.3759 46.5915 21.2305 46.7456C21.0712 46.4724 20.9327 46.1852 20.8081 45.8911C20.4757 45.1276 20.2195 44.3291 20.0118 43.5237C19.8871 43.0614 19.7902 42.5921 19.714 42.1158C19.6517 41.7166 19.6101 41.3173 19.5824 40.9181C19.4509 38.9009 19.6378 36.8487 20.1502 34.8175C20.3372 34.0611 20.5657 33.3046 20.7804 32.5692L20.7873 32.5482C20.9327 32.0579 21.1128 31.4485 21.272 30.8672L21.2859 30.8181C21.4936 30.0617 21.7014 29.2702 21.8121 28.4858C21.8468 28.2406 21.8675 27.9955 21.8814 27.7503C21.8883 27.5192 21.8883 27.2881 21.8675 27.0569C21.8468 26.8398 21.8191 26.6227 21.7706 26.4125C21.7291 26.2094 21.6667 26.0063 21.5906 25.8102C21.5213 25.6211 21.4313 25.432 21.3344 25.2569C21.2305 25.0747 21.1197 24.9067 20.995 24.7456C20.8566 24.5705 20.7111 24.4023 20.5519 24.2553C20.3441 24.0662 20.1295 23.877 19.9079 23.6949C19.8248 23.6319 19.7486 23.5548 19.6655 23.4988C18.703 24.3253 18.0244 25.3269 17.4358 26.2795C17.4981 26.4055 17.5674 26.5246 17.6436 26.6577C17.8028 26.9449 17.9552 27.218 18.066 27.5192C18.613 28.9831 18.5507 30.496 17.8721 32.0229C17.7405 32.317 17.6228 32.6182 17.5051 32.9264C17.0342 34.2081 16.6672 35.616 16.3418 37.353C16.1063 38.6138 16.0024 39.8745 16.0232 41.1773C16.0509 42.6551 16.2379 44.175 16.591 45.5829C16.9927 47.1798 17.6159 48.6647 18.4053 50.1005L17.8998 50.6749C17.8998 50.6749 17.7544 50.4648 17.7059 50.3807C17.3043 49.6663 16.8888 48.7908 16.5703 47.9993C15.6562 45.751 15.3723 43.6918 15.2961 41.6956C15.2131 39.5383 15.4416 37.9273 15.8363 36.1833C16.1686 34.7124 16.6118 33.3186 17.1865 31.9248C17.4705 31.2314 17.6366 30.643 17.699 30.0617C17.8444 28.7449 17.5189 27.6593 16.7088 26.7347C16.4318 26.4195 16.0994 26.2094 15.7462 25.9923L15.7116 25.9713L15.6493 26.0413C15.4693 26.2444 15.3238 26.4756 15.1646 26.6927C14.9915 26.9168 14.8253 27.148 14.6591 27.3791C14.3267 27.8344 14.0082 28.3037 13.7174 28.7869C12.8379 30.2508 12.2978 31.8618 11.7577 33.8229C11.3215 35.3918 11.0514 36.8067 10.9268 38.1445C10.7744 39.7484 10.719 41.1843 10.7398 42.5501C10.7606 43.9579 10.9822 45.3587 11.2107 46.6615C11.6677 49.2811 12.5194 51.8796 13.8004 54.5902C14.943 57.0066 16.3556 59.1639 17.9898 60.992C18.6822 61.7624 19.4163 62.4138 20.2195 62.9812C22.8024 64.7812 25.6899 65.8248 28.8059 66.063C29.8308 66.14 30.8487 66.105 31.6173 66.063C33.6877 65.9439 35.6889 65.3345 37.5655 64.2419C39.2412 63.2683 40.5638 61.7975 41.6025 59.7382C41.8518 59.2479 42.0734 58.7507 42.2603 58.2323C42.4473 57.721 42.6135 57.1887 42.7243 56.6564C42.842 56.0891 42.9251 55.5217 42.9736 54.9474C43.0151 54.4641 43.022 53.9808 43.022 53.4905C43.022 53.4835 43.022 53.3645 43.022 53.3645C42.4888 53.3575 41.9002 53.4135 41.3878 53.5536C40.9654 53.6727 40.5638 53.8548 40.2037 54.0999C39.9268 54.289 39.6775 54.5202 39.4559 54.7723C38.6734 55.6478 37.8909 56.3973 37.0669 57.0486C34.9757 58.7016 32.8429 59.318 30.5301 58.9328C29.4499 58.7507 28.4666 58.4004 27.6011 57.8751C26.3893 57.1397 25.1913 56.2432 24.1873 55.2486C23.8757 54.9474 23.7095 54.7653 23.4256 54.4431C23.1486 54.1349 22.7885 53.6937 22.5738 53.3365C22.5115 53.2384 22.463 53.1333 22.4423 53.0143C22.4284 52.9372 22.8024 52.3909 22.9339 52.2088Z" fill="black"/>
<path d="M33.1824 49.9597C33.1339 49.9387 33.0924 49.9177 33.0439 49.9037C31.7075 49.3784 29.9833 49.7916 29.1385 50.9893C28.7022 51.6127 28.4945 52.4112 28.5291 53.1676C28.5568 53.728 28.7299 54.2883 29.0207 54.7716C29.4985 55.5911 30.3641 56.1934 31.3128 56.2915C34.2211 56.5997 35.5367 54.1272 34.9551 51.9349C34.7335 51.0594 33.9995 50.3239 33.1824 49.9597Z" fill="black"/>
<path d="M64.0588 52.2088C63.401 51.3473 62.6047 50.5698 61.7737 49.8834C61.746 49.8624 61.7183 49.8414 61.6975 49.8204C60.0633 48.5106 58.443 47.6351 56.7465 47.1588C55.5693 46.8296 54.5237 46.7876 53.5543 47.0327C51.9409 47.446 50.5005 48.3075 49.2749 49.5962C48.714 50.1846 48.1393 50.7449 47.6476 51.2282C47.523 51.3543 47.3914 51.4663 47.246 51.5784C47.1075 51.6835 46.9621 51.7815 46.8167 51.8726C46.6713 51.9636 46.512 52.0407 46.3597 52.1037C46.2004 52.1738 46.0411 52.2298 45.875 52.2788C45.7088 52.3279 45.5356 52.3699 45.3625 52.3979C45.1686 52.4329 44.9817 52.4469 44.7878 52.4609C44.677 52.4679 44.5731 52.4679 44.4623 52.4679C44.3654 52.4679 44.2685 52.4749 44.1784 52.4749C44.1092 52.4749 44.0469 52.4749 43.9776 52.4749C43.9776 52.4749 43.9776 52.0267 43.9776 51.9917C43.9776 51.7745 43.9845 51.5644 44.0053 51.3473C44.0192 51.1932 44.033 51.0321 44.0538 50.878C44.1161 50.3807 44.2131 49.8974 44.3446 49.4141C44.49 48.8958 44.6632 48.3845 44.864 47.8872C44.8847 47.8382 44.9055 47.7892 44.9263 47.7401C45.9857 45.1416 47.9731 43.2365 50.826 42.0808C51.2969 41.8917 51.8301 41.7446 52.5087 41.6115C53.6928 41.3874 54.9738 41.3454 56.3102 41.4855C56.885 41.5415 57.4805 41.6606 58.0691 41.8287C59.5163 42.2489 60.9151 42.9073 62.3484 43.8528C62.4315 43.9089 62.5077 43.9509 62.5977 43.9999C62.6462 44.028 62.6877 44.049 62.7362 44.077L62.8193 44.126L62.8609 44.042C63.214 43.3345 63.4217 42.7532 63.5256 42.1719C63.6364 41.5485 63.7334 40.8901 63.8164 40.2247C64.045 38.3336 63.8441 36.3934 63.1932 34.2782C63.0824 33.921 62.9717 33.5638 62.8539 33.2066C62.5008 32.0929 62.1338 30.9512 61.8984 29.7885C61.5175 27.9044 61.476 26.3705 61.7668 24.9487C62.023 23.7089 62.5908 22.7564 63.4979 22.049L63.7403 21.8809C64.3843 22.5252 64.9729 23.2327 65.416 23.786C65.5407 23.9401 65.6515 24.0942 65.6515 24.0942C65.6515 24.0942 65.5268 24.2483 65.416 24.3953C65.0767 24.8576 64.7097 25.432 64.5505 26.1324C64.3427 27.0989 64.3289 27.9535 64.5158 28.7449C64.8898 30.3279 65.2983 31.8688 65.7207 33.3186C66.2539 35.1467 66.7594 37.2549 66.7594 39.5033C66.7594 40.6239 66.6555 41.7376 66.3993 42.9003C66.1569 43.9859 65.8661 44.9735 65.4299 46.0521C65.3952 46.1362 65.3537 46.2132 65.3191 46.2903C65.4645 46.4444 65.6168 46.5915 65.7623 46.7456C65.9215 46.4724 66.06 46.1852 66.1846 45.8911C66.517 45.1276 66.7732 44.3291 66.981 43.5237C67.1056 43.0614 67.2025 42.5921 67.2787 42.1158C67.341 41.7166 67.3826 41.3173 67.4103 40.9181C67.5419 38.9009 67.3549 36.8487 66.8425 34.8175C66.6555 34.0611 66.427 33.3046 66.2123 32.5692L66.2054 32.5482C66.06 32.0579 65.88 31.4485 65.7207 30.8672L65.7069 30.8181C65.4991 30.0617 65.2914 29.2702 65.1806 28.4858C65.146 28.2406 65.1252 27.9955 65.1113 27.7503C65.1044 27.5192 65.1044 27.2881 65.1252 27.0569C65.146 26.8398 65.1737 26.6227 65.2221 26.4125C65.2637 26.2094 65.326 26.0063 65.4022 25.8102C65.4714 25.6211 65.5614 25.432 65.6584 25.2569C65.7622 25.0747 65.873 24.9067 65.9977 24.7456C66.1362 24.5705 66.2816 24.4023 66.4409 24.2553C66.6486 24.0662 66.8632 23.877 67.0848 23.6949C67.1679 23.6319 67.2441 23.5548 67.3272 23.4988C68.2897 24.3253 68.9683 25.3269 69.5569 26.2795C69.4946 26.4055 69.4253 26.5246 69.3492 26.6577C69.1899 26.9449 69.0376 27.218 68.9268 27.5192C68.3797 28.9831 68.442 30.496 69.1207 32.0229C69.2522 32.317 69.3699 32.6182 69.4877 32.9264C69.9585 34.2081 70.3255 35.616 70.651 37.353C70.8864 38.6138 70.9903 39.8745 70.9695 41.1773C70.9418 42.6551 70.7548 44.175 70.4017 45.5829C70.0001 47.1798 69.3769 48.6647 68.5875 50.1005L69.093 50.6749C69.093 50.6749 69.2384 50.4648 69.2868 50.3807C69.6885 49.6663 70.1039 48.7908 70.4225 47.9993C71.3365 45.751 71.6204 43.6918 71.6966 41.6956C71.7797 39.5383 71.5512 37.9273 71.1565 36.1833C70.8241 34.7124 70.3809 33.3186 69.8062 31.9248C69.5223 31.2314 69.3561 30.643 69.2938 30.0617C69.1483 28.7449 69.4738 27.6593 70.284 26.7347C70.561 26.4195 70.8933 26.2094 71.2465 25.9923L71.2811 25.9713L71.3434 26.0413C71.5235 26.2444 71.6689 26.4756 71.8282 26.6927C72.0013 26.9168 72.1674 27.148 72.3336 27.3791C72.666 27.8344 72.9845 28.3037 73.2754 28.7869C74.1548 30.2508 74.6949 31.8618 75.235 33.8229C75.6713 35.3918 75.9413 36.8067 76.066 38.1445C76.2183 39.7484 76.2737 41.1843 76.2529 42.5501C76.2322 43.9579 76.0106 45.3587 75.7821 46.6615C75.3251 49.2811 74.4733 51.8796 73.1923 54.5902C72.0497 57.0066 70.6371 59.1639 69.0029 60.992C68.3105 61.7624 67.5765 62.4138 66.7732 62.9812C64.1904 64.7812 61.3028 65.8248 58.1868 66.063C57.162 66.14 56.1441 66.105 55.3754 66.063C53.305 65.9439 51.3038 65.3345 49.4272 64.2419C47.7515 63.2683 46.4289 61.7975 45.3902 59.7382C45.1409 59.2479 44.9194 58.7507 44.7324 58.2323C44.5454 57.721 44.3792 57.1887 44.2685 56.6564C44.1507 56.0891 44.0676 55.5217 44.0192 54.9474C43.9776 54.4641 43.9707 53.9808 43.9707 53.4905C43.9707 53.4835 43.9707 53.3645 43.9707 53.3645C44.5039 53.3575 45.0925 53.4135 45.6049 53.5536C46.0273 53.6727 46.4289 53.8548 46.789 54.0999C47.066 54.289 47.3153 54.5202 47.5368 54.7723C48.3193 55.6478 49.1018 56.3973 49.9258 57.0486C52.017 58.7016 54.1498 59.318 56.4626 58.9328C57.5428 58.7507 58.5261 58.4004 59.3917 57.8751C60.6035 57.1397 61.8014 56.2432 62.8055 55.2486C63.1171 54.9474 63.2833 54.7653 63.5672 54.4431C63.8441 54.1349 64.2042 53.6937 64.4189 53.3365C64.4812 53.2384 64.5297 53.1333 64.5505 53.0143C64.5643 52.9372 64.1904 52.3909 64.0588 52.2088Z" fill="black"/>
<path d="M53.8104 49.9597C53.8588 49.9387 53.9004 49.9177 53.9489 49.9037C55.2853 49.3784 57.0095 49.7916 57.8543 50.9893C58.2905 51.6127 58.4983 52.4112 58.4637 53.1676C58.436 53.728 58.2629 54.2883 57.972 54.7716C57.4942 55.5911 56.6287 56.1934 55.68 56.2915C52.7717 56.5997 51.456 54.1272 52.0377 51.9349C52.2593 51.0594 52.9933 50.3239 53.8104 49.9597Z" fill="black"/>
</g>
<g clip-path="url(#clip1_3927_10198)">
<path d="M116.808 45.1171L111.466 58.6089H105.889L99 31.4602H107.392L110.276 44.0051L116.965 31.0605H117.634L124.601 43.9269L127.016 31.4602H135.442L128.553 58.6089H123.332L116.808 45.1171Z" fill="#F9F6E7"/>
<path d="M146.761 55.204C144.346 57.5757 142.01 59.0005 138.691 59.0005C135.686 59.0005 133.149 56.9415 133.149 52.9886C133.149 48.7925 135.92 46.6988 140.628 46.5772L146.049 46.4556C145.893 44.7963 144.937 43.9622 142.487 43.9622C140.35 43.9622 137.301 44.3966 135.13 44.9092V37.7072C137.267 37.1946 140.316 36.7168 143.2 36.7168C151.079 36.7168 153.607 39.7227 153.685 46.2558L153.807 58.4097H147.595L146.761 55.204ZM146.049 51.7984V48.9489L142.487 49.3051C140.75 49.4615 140.151 49.9741 140.151 50.8862C140.151 51.8332 140.785 52.5108 142.522 52.5108C143.556 52.5108 144.859 52.1981 146.049 51.7984Z" fill="#F9F6E7"/>
<path d="M163.101 44.9522L163.336 58.4092H155.3V42.4588L155.101 37.1941H161.555L162.267 40.2782C164.361 38.2193 166.819 36.7598 169.591 36.7598C172.44 36.7598 175.845 38.3062 175.88 44.318L176.002 58.4092H167.966L168.044 47.0111C168.088 45.2302 167.375 44.3961 165.786 44.3961C164.882 44.4048 163.814 44.596 163.101 44.9522Z" fill="#F9F6E7"/>
<path d="M185.384 44.9522L185.619 58.4092H177.583V42.4588L177.383 37.1941H183.838L184.55 40.2782C186.644 38.2193 189.102 36.7598 191.873 36.7598C194.723 36.7598 198.128 38.3062 198.163 44.318L198.284 58.4092H190.249L190.327 47.0111C190.37 45.2302 189.658 44.3961 188.068 44.3961C187.165 44.4048 186.096 44.596 185.384 44.9522Z" fill="#F9F6E7"/>
<path d="M212.765 55.204C210.35 57.5757 208.013 59.0005 204.695 59.0005C201.689 59.0005 199.152 56.9415 199.152 52.9886C199.152 48.7925 201.923 46.6988 206.632 46.5772L212.053 46.4556C211.896 44.7963 210.941 43.9622 208.491 43.9622C206.354 43.9622 203.305 44.3966 201.133 44.9092V37.7072C203.27 37.1946 206.319 36.7168 209.203 36.7168C217.082 36.7168 219.61 39.7227 219.688 46.2558L219.81 58.4097H213.599L212.765 55.204ZM212.053 51.7984V48.9489L208.491 49.3051C206.753 49.4615 206.154 49.9741 206.154 50.8862C206.154 51.8332 206.788 52.5108 208.526 52.5108C209.559 52.5108 210.871 52.1981 212.053 51.7984Z" fill="#F9F6E7"/>
<path d="M232.198 58.9635C229.548 58.9635 225.908 58.7289 221.313 57.4605L221.356 43.0131L221.157 29H229.149V39.6857C230.773 38.1046 232.667 36.7146 235.282 36.7146C239.912 36.7146 243.117 40.7543 243.117 47.5219C243.117 55.2018 238.487 59.0417 232.198 58.9635ZM235.681 47.965C235.681 45.7497 234.656 44.1251 231.72 44.1251C230.652 44.1251 229.818 44.4031 229.183 44.794L229.262 51.4053C229.974 51.5269 230.764 51.6051 231.442 51.6051C234.257 51.6051 235.681 50.3715 235.681 47.965Z" fill="#F9F6E7"/>
<path d="M264.366 57.1033C262.185 58.1719 258.945 58.9625 255.54 58.9625C248.26 58.9625 244.021 55.0444 244.021 47.964C244.021 40.4058 249.085 36.6875 255.618 36.6875C262.151 36.6875 265 39.8932 265 45.8703C265 46.8607 264.957 47.964 264.844 49.0326L251.309 48.9544C251.822 50.9699 253.368 52.1166 256.061 52.1166C258.954 52.1166 262.116 51.3608 264.375 50.1793V57.1033H264.366ZM251.196 46.4523L258.198 46.0962C258.042 43.959 256.73 43.125 254.949 43.125C252.612 43.1337 251.466 44.2804 251.196 46.4523Z" fill="#F9F6E7"/>
</g>
<defs>
<clipPath id="clip0_3927_10198">
<rect width="87" height="88" fill="white"/>
</clipPath>
<clipPath id="clip1_3927_10198">
<rect width="166" height="30" fill="white" transform="translate(99 29)"/>
</clipPath>
</defs>
</svg>
